<svg width="25" height="24" viewBox="0 0 25 24" fill="none" xmlns="http://www.w3.org/2000/svg">
<path d="M7.52897 0.136475H17.6506C21.5103 0.136475 24.6393 3.15746 24.6393 6.88404V16.6563C24.6393 20.383 21.5103 23.4039 17.6506 23.4039H7.52897C3.66919 23.4039 0.540222 20.383 0.540222 16.6563V6.88404C0.540222 3.15746 3.66919 0.136475 7.52897 0.136475ZM7.28798 2.4632C4.89225 2.4632 2.95013 4.3383 2.95013 6.65134V16.889C2.95013 19.202 4.89225 21.0772 7.28798 21.0772H17.8916C20.2873 21.0772 22.2294 19.202 22.2294 16.889V6.65134C22.2294 4.3383 20.2873 2.4632 17.8916 2.4632H7.28798ZM18.9158 4.20826C19.7477 4.20826 20.422 4.85934 20.422 5.66247C20.422 6.46562 19.7477 7.11669 18.9158 7.11669C18.0839 7.11669 17.4096 6.46562 17.4096 5.66247C17.4096 4.85934 18.0839 4.20826 18.9158 4.20826ZM12.5898 5.95332C15.9171 5.95332 18.6146 8.55762 18.6146 11.7702C18.6146 14.9827 15.9171 17.587 12.5898 17.587C9.26238 17.587 6.565 14.9827 6.565 11.7702C6.565 8.55762 9.26238 5.95332 12.5898 5.95332ZM12.5898 8.28006C10.5933 8.28006 8.97491 9.8427 8.97491 11.7702C8.97491 13.6978 10.5933 15.2603 12.5898 15.2603C14.5863 15.2603 16.2047 13.6978 16.2047 11.7702C16.2047 9.8427 14.5863 8.28006 12.5898 8.28006Z" fill="white"/>
</svg>
