<svg width="22" height="22" viewBox="0 0 22 22" fill="none" xmlns="http://www.w3.org/2000/svg">
<path d="M19.1907 18.4669L15.0248 14.3017C16.2322 12.8521 16.8343 10.9928 16.7058 9.11048C16.5773 7.22821 15.7281 5.46795 14.3348 4.19587C12.9415 2.92379 11.1114 2.23784 9.22525 2.2807C7.33909 2.32357 5.54206 3.09196 4.208 4.42602C2.87394 5.76008 2.10555 7.55711 2.06269 9.44327C2.01982 11.3294 2.70577 13.1595 3.97785 14.5528C5.24993 15.9461 7.0102 16.7953 8.89247 16.9238C10.7747 17.0524 12.6341 16.4502 14.0837 15.2428L18.2489 19.4088C18.3107 19.4706 18.3841 19.5197 18.4649 19.5531C18.5457 19.5866 18.6323 19.6038 18.7198 19.6038C18.8073 19.6038 18.8939 19.5866 18.9747 19.5531C19.0555 19.5197 19.1289 19.4706 19.1907 19.4088C19.2526 19.3469 19.3016 19.2735 19.3351 19.1927C19.3686 19.1119 19.3858 19.0253 19.3858 18.9378C19.3858 18.8504 19.3686 18.7638 19.3351 18.683C19.3016 18.6022 19.2526 18.5287 19.1907 18.4669ZM3.41043 9.61908C3.41043 8.43424 3.76178 7.27601 4.42003 6.29086C5.07829 5.30571 6.0139 4.53787 7.10854 4.08446C8.20319 3.63104 9.4077 3.51241 10.5698 3.74356C11.7318 3.97471 12.7993 4.54526 13.6371 5.38306C14.4749 6.22087 15.0454 7.28829 15.2766 8.45036C15.5077 9.61243 15.3891 10.8169 14.9357 11.9116C14.4823 13.0062 13.7144 13.9418 12.7293 14.6001C11.7441 15.2584 10.5859 15.6097 9.40106 15.6097C7.81279 15.6079 6.29007 14.9762 5.16699 13.8531C4.04391 12.7301 3.41219 11.2073 3.41043 9.61908Z" fill="black"/>
</svg>
