<svg width="26" height="21" viewBox="0 0 26 21" fill="none" xmlns="http://www.w3.org/2000/svg">
<path d="M25.746 3.23592C24.8187 3.63304 23.8219 3.90142 22.776 4.0221C23.8435 3.40418 24.6636 2.42575 25.0497 1.25982C24.0504 1.83203 22.9438 2.24752 21.7658 2.47138C20.8225 1.50103 19.4787 0.894775 17.9913 0.894775C15.1354 0.894775 12.8198 3.13016 12.8198 5.88745C12.8198 6.27875 12.8656 6.65982 12.9538 7.02528C8.65599 6.81704 4.84551 4.82934 2.29502 1.80862C1.84986 2.54601 1.59485 3.40366 1.59485 4.31869C1.59485 6.05089 2.50776 7.57909 3.89537 8.4745C3.04776 8.44844 2.25028 8.22391 1.55313 7.84995C1.55264 7.87081 1.55264 7.89165 1.55264 7.91271C1.55264 10.3318 3.33519 12.3497 5.70083 12.8084C5.26693 12.9225 4.81007 12.9836 4.33845 12.9836C4.00523 12.9836 3.68128 12.9522 3.36547 12.894C4.02356 14.8775 5.93332 16.3211 8.19623 16.3612C6.42642 17.7005 4.19666 18.4987 1.77381 18.4987C1.3564 18.4987 0.944774 18.475 0.540222 18.4288C2.82875 19.8454 5.54698 20.6721 8.4673 20.6721C17.9791 20.6721 23.1806 13.0642 23.1806 6.46638C23.1806 6.24994 23.1756 6.03461 23.1656 5.82044C24.1761 5.11649 25.0528 4.23717 25.746 3.23592Z" fill="white"/>
</svg>
